<svg xmlns="http://www.w3.org/2000/svg" enable-background="new 0 0 2000 2000" viewBox="0 0 2000 2000" id="store-bag">
  <path fill="#0B1A2B" d="M1531.8,923.42c16.88-0.12,30.58-13.89,30.58-30.8V557.31c0-16.99-13.82-30.81-30.81-30.81h-69.63
		c-0.83-52.44-43.74-94.86-96.38-94.86c-52.64,0-95.55,42.41-96.38,94.86h-79.14c-16.99,0-30.81,13.82-30.81,30.81v29.62H632.08
		c-19.95,0-37.84,12.63-44.51,31.43l-0.19,0.52l-0.15,0.53c-2.35,8.64-25.36,64.51-49.73,123.65
		c-24.12,58.54-51.45,124.9-72.69,178.86c-11.66,29.62-20.11,52.03-25.85,68.49c-8,22.98-10.02,31.87-8.91,37.84
		c0.95,32.71,11.98,61.32,31.96,82.83c15.38,16.56,36.01,28.61,59.03,34.64v373.2c0,26.92,21.91,48.83,48.84,48.83h147.77v0.02
		h268.48v-0.02h444.19c26.93,0,48.84-21.9,48.84-48.83v-365.1c23.23-6,44.02-18.01,59.45-34.52c20.43-21.85,31.34-50.97,31.58-84.23
		C1570.45,1030.1,1569.76,1022.11,1531.8,923.42z M1365.56,460.82c36.54,0,66.37,29.32,67.2,65.67h-134.4
		C1299.19,490.14,1329.02,460.82,1365.56,460.82z M1188.42,586.92v-29.62c0-0.9,0.73-1.63,1.62-1.63h79.12h192.8h69.61
		c0.89,0,1.62,0.73,1.62,1.63v335.31c0,0.89-0.73,1.62-1.62,1.62h-11.05v0h-330.48c-0.78,0-1.44-0.56-1.59-1.29
		c-0.02-0.11-0.03-0.21-0.03-0.33V586.92z M956.94,1538.57H746.84v-287h210.11V1538.57z M1462.24,1127.58l-11.3,1.82
		c-28.84,3.25-57.7-4.86-78.1-22.15c-20.04-16.99-30.7-41.75-30.83-71.59l-0.06-14.53h-28.22l-1.18,13.3
		c-3.09,34.88-20.42,62.12-48.78,76.7c-31.07,15.97-70.51,14.62-100.48-3.44c-27.65-16.66-43.09-45.32-43.49-80.68l-29.18-0.07
		c-1.05,65.35-50.76,95.12-96.5,95.12c-45.75,0-95.47-29.77-96.51-95.11l-29.18,0c-0.47,28.93-10.54,53.21-29.13,70.22
		c-19.34,17.71-46.78,26.68-75.29,24.61l-2.11,29.11c36.47,2.65,71.86-9.09,97.1-32.19c9.83-9,17.86-19.42,24-31.06
		c6.5,12.31,15.12,23.26,25.75,32.6c22.75,19.99,53.06,31,85.36,31.01c0,0,0.01,0,0.01,0c32.29,0,62.6-11.01,85.34-30.99
		c10.64-9.35,19.27-20.32,25.77-32.65c0.62,1.17,1.26,2.32,1.92,3.46c9.9,17.16,23.71,31.17,41.06,41.63
		c20.57,12.4,44.61,18.65,68.63,18.65c20.87,0,41.73-4.73,60.26-14.25c20.56-10.57,36.72-25.99,47.81-45.19
		c6.87,14.4,16.6,27.06,29.04,37.6c22.7,19.25,53.19,29.77,84.6,29.77c3.79,0,7.6-0.16,11.41-0.47v360.11
		c0,10.83-8.82,19.64-19.66,19.64H986.13v-316.18H717.65v316.18H569.88c-10.83,0-19.65-8.81-19.65-19.64v-368.16
		c3.75,0.31,7.51,0.46,11.25,0.46c30.84,0,60.92-10.33,83.5-29.24c9.4-7.87,19.74-19.06,27.86-34.37
		c11.55,21.95,29.6,39.44,53.08,50.71l12.63-26.31c-32.37-15.53-50.54-45.74-51.17-85.08l-29.18,0.03
		c-0.43,30.39-11.47,55.5-31.94,72.64c-20.39,17.07-48.97,25.01-77.31,21.7l-10.94-1.79c-37.43-6.13-77.79-33.96-78.8-93.7
		l-0.03-1.94c1.05-5.69,7.01-26.09,35.88-99.06c20.71-52.35,46.61-115.2,69.45-170.65c30.05-72.93,47.45-115.34,50.71-126.43
		c2.65-6.97,9.38-11.63,16.87-11.63h527.16v276.5c0,16.99,13.82,30.81,30.81,30.81h310.48c32.84,85.04,39.57,106.59,40.48,111.62
		C1540.51,1093.95,1500.04,1121.47,1462.24,1127.58z"></path>
  <path fill="#FFF" d="M1365.56 460.82c-36.54 0-66.37 29.32-67.2 65.67h134.4C1431.93 490.14 1402.11 460.82 1365.56 460.82zM1190.04 894.23h330.48v0h11.05c.89 0 1.62-.73 1.62-1.62V557.31c0-.9-.73-1.63-1.62-1.63h-69.61-192.8-79.12c-.89 0-1.62.73-1.62 1.63v29.62 305.69c0 .11.01.22.03.33C1188.61 893.68 1189.26 894.23 1190.04 894.23z"></path>
  <rect width="210.11" height="287" x="746.84" y="1251.57" fill="#FFF"></rect>
  <path fill="#FD3938" d="M1500.52,923.42h-310.48c-16.99,0-30.81-13.82-30.81-30.81v-276.5H632.08c-7.49,0-14.22,4.66-16.87,11.63
			c-3.26,11.09-20.67,53.5-50.71,126.43c-22.84,55.45-48.74,118.3-69.45,170.65c-28.88,72.97-34.83,93.37-35.88,99.06l0.03,1.94
			c1,59.73,41.36,87.57,78.8,93.7l10.94,1.79c28.34,3.32,56.92-4.63,77.31-21.7c20.47-17.14,31.51-42.26,31.94-72.64l29.18-0.03
			c0.63,39.33,18.8,69.55,51.17,85.08l-12.63,26.31c-23.48-11.27-41.54-28.76-53.08-50.71c-8.11,15.31-18.45,26.49-27.86,34.37
			c-22.58,18.91-52.66,29.24-83.5,29.24c-3.75,0-7.5-0.15-11.25-0.46v368.16c0,10.83,8.82,19.64,19.65,19.64h147.77v-316.18h268.48
			v316.18h444.19c10.84,0,19.66-8.81,19.66-19.64v-360.11c-3.81,0.31-7.61,0.47-11.41,0.47c-31.41,0-61.89-10.52-84.6-29.77
			c-12.44-10.55-22.17-23.2-29.04-37.6c-11.09,19.2-27.25,34.62-47.81,45.19c-18.53,9.53-39.39,14.25-60.26,14.25
			c-24.02,0-48.06-6.26-68.63-18.65c-17.35-10.46-31.17-24.46-41.06-41.63c-0.66-1.14-1.3-2.3-1.92-3.46
			c-6.5,12.33-15.13,23.29-25.77,32.65c-22.74,19.99-53.05,30.99-85.34,30.99c0,0-0.01,0-0.01,0c-32.3,0-62.61-11.01-85.36-31.01
			c-10.63-9.34-19.25-20.29-25.75-32.6c-6.14,11.64-14.18,22.06-24,31.06c-25.24,23.1-60.63,34.83-97.1,32.19l2.11-29.11
			c28.5,2.07,55.94-6.9,75.29-24.61c18.59-17.01,28.66-41.29,29.13-70.22l29.18,0c1.04,65.34,50.76,95.11,96.51,95.11
			c45.74,0,95.45-29.76,96.5-95.12l29.18,0.07c0.4,35.37,15.84,64.02,43.49,80.68c29.97,18.06,69.41,19.41,100.48,3.44
			c28.36-14.58,45.69-41.82,48.78-76.7l1.18-13.3h28.22l0.06,14.53c0.13,29.84,10.79,54.6,30.83,71.59
			c20.4,17.29,49.25,25.4,78.1,22.15l11.3-1.82c37.8-6.1,78.27-33.62,78.76-92.54C1540.09,1030.01,1533.36,1008.46,1500.52,923.42z"></path>
  <rect width="248.08" height="128.92" x="1098.13" y="1251.57" fill="#FFF"></rect>
  <path fill="#0B1A2B" d="M1375.4 1222.38h-306.46v187.29h306.46V1222.38zM1346.22 1380.49h-248.08v-128.92h248.08V1380.49zM1447.37 574.52c-11.47 0-20.8 9.33-20.8 20.8 0 11.47 9.33 20.8 20.8 20.8 11.47 0 20.79-9.33 20.79-20.8C1468.17 583.85 1458.84 574.52 1447.37 574.52zM1447.37 603.71c-4.63 0-8.39-3.76-8.39-8.39s3.76-8.39 8.39-8.39c4.63 0 8.39 3.76 8.39 8.39S1452 603.71 1447.37 603.71zM1283.75 574.52c-11.47 0-20.8 9.33-20.8 20.8 0 11.47 9.33 20.8 20.8 20.8 11.47 0 20.79-9.33 20.79-20.8C1304.55 583.85 1295.22 574.52 1283.75 574.52zM1283.75 603.71c-4.63 0-8.39-3.76-8.39-8.39s3.76-8.39 8.39-8.39c4.63 0 8.39 3.76 8.39 8.39S1288.38 603.71 1283.75 603.71z"></path>
  <g>
    <path fill="#FD3938" d="M1447.37 586.92c-4.63 0-8.39 3.76-8.39 8.39s3.76 8.39 8.39 8.39c4.63 0 8.39-3.76 8.39-8.39S1452 586.92 1447.37 586.92zM1283.75 586.92c-4.63 0-8.39 3.76-8.39 8.39s3.76 8.39 8.39 8.39c4.63 0 8.39-3.76 8.39-8.39S1288.38 586.92 1283.75 586.92z"></path>
  </g>
</svg>
